<?xml version="1.0" encoding="UTF-8"?>
<svg version="1.1" xmlns="http://www.w3.org/2000/svg" width="2403" height="888">
<path d="M0 0 C38.61 0 77.22 0 117 0 C117.01458252 12.70918945 117.02916504 25.41837891 117.04418945 38.51269531 C117.0929937 79.22241817 117.15641579 119.93210659 117.22898628 160.64179374 C117.24025384 166.97001725 117.25139239 173.29824097 117.26245117 179.62646484 C117.26465486 180.88624868 117.26685854 182.14603252 117.269129 183.44399163 C117.30445788 203.81619858 117.32934688 224.18840548 117.35034702 244.56063166 C117.37214423 265.47954223 117.40523179 286.3984132 117.44870156 307.31729007 C117.47515078 320.21521527 117.49289567 333.11309118 117.49934604 346.01104215 C117.50462055 354.86732453 117.52090646 363.72354499 117.54566566 372.57979414 C117.55961017 377.68192332 117.56887802 382.78394183 117.56500816 387.88609123 C117.5615626 392.57126944 117.57216294 397.25621253 117.59323552 401.94134268 C117.59844321 403.62270219 117.59880299 405.30408653 117.59339563 406.98544541 C117.54813446 422.67581954 119.12802956 438.46964298 123.625 453.5625 C123.87588379 454.41835693 124.12676758 455.27421387 124.38525391 456.15600586 C130.41729024 475.74842 140.66027349 492.45335103 155 507 C155.71800781 507.73089844 156.43601563 508.46179688 157.17578125 509.21484375 C174.40781746 525.60312677 199.49573093 534.1238279 223 535 C223.99128906 535.03996094 224.98257813 535.07992187 226.00390625 535.12109375 C257.87533955 535.74892036 290.10111125 528.1272616 314 506 C341.52415609 479.5296018 351.13164348 438.2196688 352.09841073 401.23521948 C352.15382285 396.8841142 352.15569262 392.53297574 352.15821838 388.18157959 C352.1627926 386.5006776 352.16779386 384.81977673 352.17318195 383.13887715 C352.18667466 378.54835441 352.19415549 373.95783901 352.20060861 369.3673017 C352.20865183 364.40631238 352.22233596 359.44533815 352.23532104 354.48435974 C352.25702842 345.89854152 352.27519375 337.31272173 352.29092598 328.72689056 C352.31367707 316.3133508 352.34181251 303.89982779 352.37124526 291.48630229 C352.4188571 271.34422847 352.46213856 251.20214778 352.50268555 231.06005859 C352.54207314 211.49852972 352.58350714 191.93700694 352.62768555 172.37548828 C352.63177196 170.56561749 352.63177196 170.56561749 352.63594092 168.71918365 C352.64962093 162.66588233 352.6633411 156.6125811 352.67708123 150.55927992 C352.79094529 100.37286525 352.89697701 50.18643832 353 0 C391.61 0 430.22 0 470 0 C470.01981934 11.99674072 470.03963867 23.99348145 470.06005859 36.35375977 C470.124958 74.80199295 470.19949663 113.25020209 470.28005161 151.69840554 C470.29256948 157.67727346 470.30500241 163.65614156 470.31738281 169.63500977 C470.3210818 171.42032892 470.3210818 171.42032892 470.32485552 173.24171513 C470.36450678 192.47701881 470.39728779 211.71232832 470.42749982 230.94764889 C470.45868747 250.70604418 470.49732777 270.46441491 470.54279006 290.22278255 C470.57057805 302.40055249 470.59265276 314.57830461 470.60726251 326.75609761 C470.6178592 335.12321362 470.63573852 343.49029499 470.65916704 351.85738481 C470.67244526 356.67430262 470.68268337 361.4911722 470.68421364 366.30810928 C470.70344304 410.98603121 471.24121431 462.14216428 502 498 C502.67160156 498.84304688 503.34320312 499.68609375 504.03515625 500.5546875 C521.80784805 521.88191765 549.26214649 531.45136654 576.12890625 534.3359375 C607.68932359 537.14637178 639.02679481 531.66013563 664 511 C671.74186783 504.17635885 678.6003508 496.82862351 684 488 C684.64324219 486.989375 685.28648437 485.97875 685.94921875 484.9375 C702.74003188 457.30461897 706.14001949 425.41969701 706.15821838 393.71328735 C706.16279468 392.00591048 706.16779623 390.29853469 706.17318195 388.59116018 C706.18665102 383.93674665 706.19414848 379.28234034 706.20060861 374.62791252 C706.20866243 369.59470152 706.22234281 364.56150533 706.23532104 359.52830505 C706.25701358 350.82029309 706.27518424 342.11227959 706.29092598 333.40425491 C706.31369072 320.8140928 706.34182418 308.22394712 706.37124526 295.633799 C706.41884048 275.20444099 706.46212638 254.77507623 706.50268555 234.34570312 C706.54208163 214.5068306 706.58351764 194.66796406 706.62768555 174.82910156 C706.63177196 172.99313598 706.63177196 172.99313598 706.63594092 171.12008019 C706.64962107 164.97941571 706.66334121 158.83875132 706.67708123 152.69808698 C706.79091915 101.79873641 706.89695946 50.89937379 707 0 C745.61 0 784.22 0 824 0 C824.04412885 55.82333778 824.0810426 111.64665904 824.10213066 167.47000928 C824.10463193 174.06732718 824.10722059 180.66464504 824.10986328 187.26196289 C824.11065021 189.23199178 824.11065021 189.23199178 824.11145304 191.24181924 C824.12014478 212.47987734 824.13590795 233.71792456 824.15430559 254.95597621 C824.17303893 276.76418625 824.18412398 298.57239062 824.18817699 320.38060838 C824.19091493 333.8267002 824.19954819 347.27276127 824.21583293 360.71884362 C824.22644224 369.95168213 824.22959173 379.18450485 824.22700275 388.417349 C824.22572759 393.73629652 824.22761878 399.05519046 824.23841095 404.37412834 C824.24824823 409.25852152 824.24856808 414.14282585 824.24179779 419.02722339 C824.24096285 420.77994253 824.24341041 422.53266756 824.24976636 424.28537538 C824.30603764 440.78272162 823.44006666 457.46011961 819.9375 473.625 C819.62486206 475.08788452 819.62486206 475.08788452 819.3059082 476.58032227 C812.16227001 508.24719652 798.72881564 537.92271042 778 563 C777.15337535 564.05056333 776.30702583 565.10134844 775.4609375 566.15234375 C764.91065364 579.09237311 753.15659298 590.81031844 739.71630859 600.73242188 C738.01432411 601.98942094 736.32955002 603.2672632 734.64453125 604.546875 C725.6108374 611.30450656 716.00413249 616.81073537 706 622 C704.87682373 622.58612061 704.87682373 622.58612061 703.73095703 623.18408203 C671.4299509 639.82695719 635.1118271 647.62945895 598.89550781 647.39111328 C596.00017237 647.37500096 593.10623194 647.39110183 590.2109375 647.41015625 C543.25206393 647.46343019 494.82850656 633.25653766 457 605 C456.02417969 604.27167969 455.04835938 603.54335938 454.04296875 602.79296875 C451.63757328 600.91964233 449.3076363 598.99202707 447 597 C446.24332031 596.35289062 445.48664063 595.70578125 444.70703125 595.0390625 C432.58463121 584.39982723 421.40365008 573.12085764 412 560 C408.8974283 563.02274567 406.06905581 566.06190472 403.4375 569.5 C380.73839472 598.18380348 350.252034 619.32416052 316 632 C315.17322754 632.30631348 314.34645508 632.61262695 313.49462891 632.92822266 C300.24472947 637.75117598 286.84242796 641.34183452 273 644 C272.1862793 644.16516113 271.37255859 644.33032227 270.53417969 644.50048828 C240.85710668 650.29800941 206.48139064 649.40223623 177 643 C176.09266113 642.80744629 175.18532227 642.61489258 174.25048828 642.41650391 C168.43728018 641.15064797 162.70939577 639.6708647 157 638 C156.24992676 637.78118164 155.49985352 637.56236328 154.72705078 637.33691406 C118.79171537 626.61157462 88.12654505 606.52627404 61 581 C60.34128906 580.38382813 59.68257812 579.76765625 59.00390625 579.1328125 C53.85420834 574.16151059 49.40579648 568.63041084 45 563 C44.57170898 562.4534375 44.14341797 561.906875 43.70214844 561.34375 C15.02610783 524.42360993 -0.40374578 479.7056544 -0.24050903 433.03651428 C-0.24138291 431.1591581 -0.24313723 429.28180215 -0.24568737 427.4044475 C-0.25012911 422.2847946 -0.24220121 417.16522644 -0.23213124 412.04558432 C-0.22345297 406.51000907 -0.22641999 400.97443818 -0.22793579 395.43885803 C-0.22898188 385.86105795 -0.22273416 376.28328522 -0.21146011 366.70549202 C-0.19517061 352.85780182 -0.18999358 339.01012479 -0.18748413 325.16242605 C-0.18311244 302.69266764 -0.16983486 280.22292359 -0.15087891 257.75317383 C-0.13249188 235.93253657 -0.11833356 214.11190322 -0.10986328 192.29125977 C-0.10960023 191.61791939 -0.10933718 190.94457901 -0.10906615 190.25083437 C-0.10642897 183.48849193 -0.10387737 176.72614946 -0.10138843 169.96380697 C-0.08052827 113.30919149 -0.0435864 56.65460345 0 0 Z " fill="#000000" transform="translate(10,231)"/>
<path d="M0 0 C1.68952836 1.60228893 3.36800842 3.215217 5.04199219 4.83374023 C5.69522461 5.46505859 6.34845703 6.09637695 7.02148438 6.74682617 C15.21382774 14.70785631 23.15762199 22.69043607 30.04199219 31.83374023 C30.50605469 32.43782715 30.97011719 33.04191406 31.44824219 33.66430664 C65.5190511 78.19754826 83.37179349 131.42853579 89.04199219 186.83374023 C89.13141553 187.70004948 89.22083887 188.56635872 89.31297201 189.45891976 C90.08858248 197.75383099 90.18002311 205.99797635 90.1622467 214.32342529 C90.16268361 215.85995827 90.16356071 217.39649118 90.16483587 218.93302369 C90.1670574 223.12450347 90.16309185 227.3159574 90.15805781 231.50743389 C90.15371964 236.03896263 90.15520211 240.57049003 90.15596008 245.10202026 C90.15648319 252.94301445 90.15335869 260.78400028 90.14772224 268.62499237 C90.13957832 279.96160412 90.13698906 291.29821185 90.13573425 302.63482621 C90.13354828 321.02990922 90.12690051 339.42498777 90.11743164 357.82006836 C90.10824577 375.68400043 90.10117069 393.54793128 90.09692383 411.41186523 C90.0966611 412.51390092 90.09639838 413.6159366 90.0961277 414.7513673 C90.09482261 420.28022604 90.09355892 425.8090848 90.09231579 431.33794355 C90.08195732 477.16987973 90.06352664 523.00180768 90.04199219 568.83374023 C51.43199219 568.83374023 12.82199219 568.83374023 -26.95800781 568.83374023 C-26.97988159 552.09522339 -26.97988159 552.09522339 -27.00219727 535.01855469 C-27.0510217 499.25711243 -27.11444932 463.49570929 -27.18699409 427.73430761 C-27.19826138 422.1734579 -27.20939998 416.61260794 -27.22045898 411.05175781 C-27.22376451 409.39125755 -27.22376451 409.39125755 -27.22713681 407.69721182 C-27.26244686 389.80559421 -27.28734645 371.91397664 -27.30835483 354.02233718 C-27.33016712 335.64481635 -27.36326879 317.26734049 -27.40670937 298.88985795 C-27.43313282 287.56272375 -27.45089661 276.2356455 -27.45735385 264.90848204 C-27.46263634 257.12632099 -27.47894848 249.34423016 -27.50367347 241.56210683 C-27.5175911 237.08160654 -27.52689617 232.60123168 -27.52301598 228.12070847 C-27.50200629 201.84764035 -27.50200629 201.84764035 -30.95800781 175.83374023 C-31.18934575 174.66327306 -31.42068369 173.49280588 -31.65903187 172.28687 C-32.22227418 169.60792775 -32.86982618 166.97639407 -33.58300781 164.33374023 C-33.8346167 163.39143555 -34.08622559 162.44913086 -34.34545898 161.47827148 C-41.66033381 135.36523607 -55.47928441 113.43639315 -73.95800781 93.83374023 C-74.60640625 93.12088867 -75.25480469 92.40803711 -75.92285156 91.67358398 C-104.59963903 61.34554196 -147.72553073 44.87389518 -187.95800781 37.83374023 C-188.8482666 37.67147949 -189.73852539 37.50921875 -190.65576172 37.34204102 C-238.43260002 28.95968427 -289.20527667 35.75907003 -331.95800781 58.83374023 C-332.57015137 59.15987305 -333.18229492 59.48600586 -333.81298828 59.82202148 C-342.43702686 64.44607208 -350.28900162 69.75542076 -357.95800781 75.83374023 C-358.81394531 76.4847168 -359.66988281 77.13569336 -360.55175781 77.80639648 C-406.05323244 113.37155511 -430.15755212 168.48755268 -438.01293945 224.56469727 C-445.0128366 282.83303543 -430.49948069 344.48104748 -394.33154297 391.08569336 C-382.26741958 406.43925245 -368.83456491 420.3945112 -352.95800781 431.83374023 C-352.37615723 432.25461914 -351.79430664 432.67549805 -351.19482422 433.10913086 C-319.65129531 455.64393176 -280.76047055 468.76492988 -241.95800781 469.83374023 C-240.72695312 469.87370117 -239.49589844 469.91366211 -238.22753906 469.95483398 C-198.49077906 470.62168978 -160.22111145 457.97357905 -127.95800781 434.83374023 C-127.07798096 434.20387207 -127.07798096 434.20387207 -126.18017578 433.5612793 C-118.91000218 428.29220298 -112.19834431 422.4891613 -105.66113281 416.34936523 C-103.45184769 414.29332532 -101.20802398 412.33273752 -98.89550781 410.39624023 C-90.57191121 403.1605826 -83.50494929 394.48515898 -76.73535156 385.81811523 C-76.14882812 385.16327148 -75.56230469 384.50842773 -74.95800781 383.83374023 C-74.29800781 383.83374023 -73.63800781 383.83374023 -72.95800781 383.83374023 C-72.53639593 401.60131213 -72.21957884 419.36757636 -72.02538872 437.13907909 C-71.93279857 445.39211494 -71.80673641 453.6420331 -71.60009766 461.89306641 C-71.41994262 469.09008012 -71.30439524 476.28483613 -71.26441491 483.48404199 C-71.24105739 487.2929448 -71.18675674 491.09539352 -71.05486679 494.90221214 C-70.28782822 517.93117052 -70.28782822 517.93117052 -74.67166901 524.33832169 C-78.76336179 528.46256853 -83.38800419 531.17869151 -88.60370255 533.657938 C-91.79741821 535.25296396 -94.67565768 537.21384617 -97.61274529 539.23398113 C-136.59399261 565.93869314 -183.0267947 581.8368839 -230.43066406 582.03686523 C-231.51141708 582.04256531 -232.5921701 582.04826538 -233.70567322 582.05413818 C-235.9890751 582.06353908 -238.27249025 582.0701025 -240.5559082 582.07397461 C-243.95908129 582.08356709 -247.36161951 582.11459105 -250.76464844 582.14624023 C-270.89649916 582.24439806 -290.69705454 580.37822002 -310.39550781 576.14624023 C-311.59667236 575.89060303 -312.79783691 575.63496582 -314.03540039 575.37158203 C-352.70884063 566.85504826 -388.67171809 550.68976968 -420.95800781 527.83374023 C-421.57240723 527.39932617 -422.18680664 526.96491211 -422.81982422 526.51733398 C-441.75748704 512.99601007 -460.0278195 496.68197294 -474.95800781 478.83374023 C-475.41159668 478.29394531 -475.86518555 477.75415039 -476.33251953 477.19799805 C-538.83288949 402.53312655 -564.43318056 304.77925262 -556.13330078 208.50317383 C-555.55183573 202.92251803 -554.80719231 197.37953638 -553.95800781 191.83374023 C-553.70059814 190.10752441 -553.70059814 190.10752441 -553.43798828 188.34643555 C-544.53120436 130.19365327 -521.32197025 73.11819798 -481.95800781 28.83374023 C-481.35988281 28.13764648 -480.76175781 27.44155273 -480.14550781 26.72436523 C-472.27390665 17.56606003 -464.24870195 8.57053307 -454.95800781 0.83374023 C-453.97832031 -0.03379883 -452.99863281 -0.90133789 -451.98925781 -1.79516602 C-402.61930398 -45.42780541 -340.45241578 -67.58244081 -275.95800781 -76.16625977 C-274.96140137 -76.3004834 -273.96479492 -76.43470703 -272.93798828 -76.57299805 C-182.52914791 -88.05374202 -78.30714183 -67.32584966 0 0 Z " fill="#000000" transform="translate(1481.9580078125,296.166259765625)"/>
<path d="M0 0 C3.57624498 0.0088336 7.15248533 0.00570066 10.72873819 0.00419545 C16.88992651 0.00315886 23.05107169 0.00930493 29.21224916 0.02067113 C38.11970285 0.03709278 47.02713619 0.04215093 55.93460337 0.04464711 C70.39478164 0.04899846 84.85493704 0.06223711 99.31510293 0.08125234 C113.3417945 0.09967809 127.3684798 0.11380159 141.39518106 0.12226796 C142.26327723 0.12279341 143.1313734 0.12331886 144.02577551 0.12386023 C148.38180122 0.12647075 152.73782698 0.12899806 157.09385276 0.13148403 C193.09429958 0.15213658 229.09470399 0.18896247 265.09513223 0.23213124 C265.09513223 37.19213124 265.09513223 74.15213124 265.09513223 112.23213124 C255.81428506 112.24671376 246.5334379 112.26129628 236.97135293 112.2763207 C207.21120358 112.32517008 177.45110109 112.38860448 147.69100036 112.46111752 C143.06146972 112.47238449 138.43193877 112.48352314 133.80240762 112.49458241 C132.42003453 112.49788794 132.42003453 112.49788794 131.00973471 112.50126024 C116.12505335 112.53654706 101.24037204 112.56145969 86.35566447 112.58247826 C71.06081198 112.60430919 55.76601334 112.63742819 40.47120672 112.6808328 C31.04805764 112.70722448 21.62497554 112.72501153 12.20179137 112.73147728 C5.72315982 112.73676965 -0.75538773 112.75311398 -7.23397412 112.7777969 C-10.96108193 112.79168149 -14.68803985 112.80103245 -18.41517508 112.79713941 C-57.26862663 112.12327287 -57.26862663 112.12327287 -90.90486777 129.23213124 C-101.59034425 141.18915711 -102.69198629 157.71204954 -102.08406699 172.98261952 C-101.24157298 183.55855927 -94.59642632 193.2802552 -87.05721152 200.42353749 C-49.96893358 231.5884607 4.5119883 241.19056988 50.1141752 253.93867421 C70.86726082 259.74106601 91.5996214 265.56469123 112.09513223 272.23213124 C112.80923257 272.46400136 113.52333292 272.69587148 114.25907266 272.93476796 C134.27491311 279.45109768 153.91360503 286.51297915 173.09513223 295.23213124 C174.15409708 295.71150136 175.21306192 296.19087148 176.30411661 296.68476796 C224.72323245 318.78819637 268.99641915 351.46326234 288.30216348 402.84541249 C293.2879519 417.07805307 296.17600277 432.51347943 296.33341348 447.59541249 C296.34810426 448.76745732 296.34810426 448.76745732 296.36309183 449.96317983 C296.62128597 475.95965081 294.89357629 500.51983477 286.09513223 525.23213124 C285.85536661 525.91162831 285.61560098 526.59112538 285.36856973 527.29121327 C278.29652313 546.94819996 267.55677239 564.17973781 253.09513223 579.23213124 C251.75708536 580.66492421 251.75708536 580.66492421 250.39200723 582.12666249 C238.7003521 594.42812702 225.10579828 603.45008644 210.09513223 611.23213124 C208.94013223 611.83670156 207.78513223 612.44127187 206.59513223 613.06416249 C169.94351845 631.18544029 129.88382654 634.7373833 89.65646565 634.58032811 C85.40466901 634.56714764 81.15288233 634.57177243 76.90107095 634.57403493 C69.56666996 634.57559403 62.23235017 634.5663294 54.8979696 634.54932141 C44.29421788 634.52474821 33.69050468 634.51710761 23.08672757 634.51335744 C5.87515151 634.50682137 -11.33638146 634.48693823 -28.54793417 634.4584496 C-45.24910389 634.43083483 -61.95026181 634.40963775 -78.6514498 634.39692616 C-79.68409345 634.39613799 -80.7167371 634.39534982 -81.78067298 634.39453777 C-86.96209321 634.39062214 -92.14351352 634.38683114 -97.32493389 634.38310206 C-140.18495015 634.35209492 -183.04488654 634.29684033 -225.90486777 634.23213124 C-225.90486777 597.27213124 -225.90486777 560.31213124 -225.90486777 522.23213124 C-215.56787558 522.21754872 -205.23088339 522.2029662 -194.58064902 522.18794179 C-161.47080795 522.13913922 -128.36100923 522.0757176 -95.25121206 522.00314496 C-90.1045142 521.99187738 -84.95781608 521.98073884 -79.81111777 521.96968007 C-78.78654325 521.96747639 -77.76196874 521.9652727 -76.70634651 521.96300224 C-60.1369896 521.92767179 -43.56763272 521.90278368 -26.99825215 521.88178422 C-9.98467814 521.85998826 7.02884717 521.82690189 24.04237974 521.78342968 C34.53269628 521.75697829 45.0229522 521.739235 55.51330042 521.7327852 C62.71607875 521.72751135 69.91878092 521.71122766 77.12151837 521.68646558 C81.27128363 521.67251877 85.42091278 521.66325406 89.57070291 521.66712308 C93.38106029 521.67056764 97.19112844 521.6599742 101.0014267 521.63889573 C103.00969772 521.63124638 105.01800835 521.63801257 107.02627981 521.64554828 C125.01539688 521.50725984 144.64377863 518.08200156 158.09513223 505.23213124 C158.72935098 504.62627187 159.36356973 504.02041249 160.01700723 503.39619374 C170.50813579 492.41189247 173.6321968 476.92155482 173.51676309 462.13716054 C172.99538965 447.96715955 166.74294519 436.09992819 156.72184122 426.33271718 C136.32954511 407.41292102 108.03085967 397.75421556 82.09513223 389.23213124 C80.92998086 388.84476796 79.7648295 388.45740468 78.56437051 388.05830312 C59.22678767 381.67292965 39.66302175 376.06511142 20.09442461 370.44066644 C-123.75533667 329.09225722 -123.75533667 329.09225722 -169.90486777 289.23213124 C-170.68475058 288.56181874 -171.46463339 287.89150624 -172.26814902 287.20088124 C-174.8574977 284.92126326 -177.38829017 282.59187864 -179.90486777 280.23213124 C-180.40921347 279.76178456 -180.91355917 279.29143788 -181.43318808 278.80683827 C-190.06167245 270.69564283 -197.31928608 262.07328931 -203.90486777 252.23213124 C-204.87359824 250.78967031 -204.87359824 250.78967031 -205.86189902 249.31806874 C-216.29117281 232.60297982 -222.32533849 212.64648317 -224.90486777 193.23213124 C-225.01701621 192.42388906 -225.12916464 191.61564687 -225.24471152 190.78291249 C-230.08765173 148.52328353 -220.58359246 102.19000783 -194.15486777 68.29463124 C-192.75175572 66.59584424 -191.3341861 64.90892872 -189.90486777 63.23213124 C-189.09275839 62.27306874 -188.28064902 61.31400624 -187.44393027 60.32588124 C-180.69859989 52.5599421 -173.21325501 46.26520184 -164.90486777 40.23213124 C-164.33848593 39.81221913 -163.7721041 39.39230702 -163.18855917 38.95967031 C-135.82694708 18.84476351 -101.93523482 9.17693666 -68.77986777 4.04463124 C-67.79977744 3.88962148 -66.8196871 3.73461171 -65.80989707 3.57490468 C-44.00146567 0.42187845 -21.99662828 -0.06854102 0 0 Z " fill="#000000" transform="translate(1888.9048677682877,230.76786875724792)"/>
<path d="M0 0 C38.61 0 77.22 0 117 0 C117 282.15 117 564.3 117 855 C78.39 855 39.78 855 0 855 C0 572.85 0 290.7 0 0 Z " fill="#000000" transform="translate(2276,10)"/>
</svg>
